<?xml version="1.0" encoding="iso-8859-1"?>
<!-- Generator: Adobe Illustrator 19.0.0, SVG Export Plug-In . SVG Version: 6.00 Build 0)  -->
<svg version="1.1" id="Capa_1" xmlns="http://www.w3.org/2000/svg" xmlns:xlink="http://www.w3.org/1999/xlink" x="0px" y="0px"
	 viewBox="0 0 395.776 395.776" style="enable-background:new 0 0 395.776 395.776;" xml:space="preserve">
<g>
	<g>
		<path d="M113.296,287.744l-39.936-51.2c-1.536-2.048-4.096-2.56-6.144-1.536c-2.56,1.024-4.608,2.56-7.168,4.608
			c-8.192,6.144-13.312,15.36-14.336,25.6s1.536,19.968,8.192,28.16c6.144,8.192,15.36,13.312,25.6,14.336
			c1.536,0,3.072,0.512,4.608,0.512c8.704,0,16.896-3.072,23.552-8.192c2.048-1.536,4.096-3.584,5.632-5.632
			S114.832,289.792,113.296,287.744z M101.52,291.328c-5.632,4.608-13.312,6.656-20.48,6.144c-7.68-1.024-14.336-4.608-18.944-10.24
			c-9.728-12.288-7.68-29.696,4.608-39.424c0.512-0.512,1.024-1.024,1.536-1.024l34.816,44.032
			C102.032,290.816,102.032,291.328,101.52,291.328z"/>
	</g>
</g>
<g>
	<g>
		<path d="M78.992,273.408c-1.536-2.048-5.12-2.56-7.168-1.024l-3.072,2.56c-2.048,1.536-2.56,5.12-1.024,7.168
			c1.024,1.024,2.56,2.048,4.096,2.048c1.024,0,2.048-0.512,3.072-1.024l3.072-2.56C80.016,279.04,80.528,275.456,78.992,273.408z"
			/>
	</g>
</g>
<g>
	<g>
		<path d="M85.136,278.528c-3.072,0-5.12,2.56-5.12,5.12v5.632c0,2.56,2.56,5.12,5.12,5.12c3.072,0,5.12-2.56,5.12-5.12v-5.632
			C90.256,280.576,87.696,278.528,85.136,278.528z"/>
	</g>
</g>
<g>
	<g>
		<path d="M71.312,259.072l-5.12-1.024c-2.56,0-5.632,1.536-6.144,4.096s1.024,5.632,3.584,6.144l5.12,1.024
			c0.512,0,1.024,0,1.024,0c2.048,0,4.608-1.536,5.12-4.096C75.408,262.656,73.872,259.584,71.312,259.072z"/>
	</g>
</g>
<g>
	<g>
		<path d="M134.8,186.88c-1.024-2.56-2.56-4.608-4.096-7.168c-12.288-16.896-36.352-20.48-53.76-8.192
			c-16.896,12.288-20.48,36.352-8.192,53.76c1.536,2.048,3.072,4.096,5.12,5.632c1.024,1.024,2.048,1.536,3.584,1.536
			c1.024,0,2.048-0.512,3.072-1.024l52.736-38.4C135.312,191.488,135.824,188.928,134.8,186.88z M77.968,220.672
			c-0.512-0.512-0.512-1.024-1.024-1.024c-9.216-12.288-6.656-30.208,6.144-39.424c5.12-3.584,10.752-5.632,16.384-5.632
			c8.704,0,17.408,4.096,22.528,11.264c0.512,0.512,1.024,1.024,1.024,1.536L77.968,220.672z"/>
	</g>
</g>
<g>
	<g>
		<path d="M96.912,189.952l-2.048-3.072c-1.536-2.048-5.12-2.56-7.168-1.024c-2.048,1.536-2.56,5.12-1.024,7.168l2.048,3.072
			c1.024,1.536,2.56,2.048,4.096,2.048c1.024,0,2.048-0.512,3.072-1.024C97.936,195.584,98.448,192,96.912,189.952z"/>
	</g>
</g>
<g>
	<g>
		<path d="M85.136,198.144h-5.632c-2.56,0-5.12,2.048-5.12,5.12c0,3.072,2.048,5.12,5.12,5.12h5.632c2.56,0,5.12-2.048,5.12-5.12
			C90.256,200.704,88.208,198.144,85.136,198.144z"/>
	</g>
</g>
<g>
	<g>
		<path d="M107.664,178.688c-2.56-1.024-5.632,0.512-6.144,3.584l-1.536,5.12c-1.024,2.56,0.512,5.632,3.584,6.144
			c0.512,0,1.024,0,1.536,0c2.048,0,4.096-1.536,5.12-3.584l1.536-5.12C111.76,182.272,110.224,179.712,107.664,178.688z"/>
	</g>
</g>
<g>
	<g>
		<path d="M183.952,89.6c-0.512-1.536-2.048-2.56-3.584-3.072L68.752,63.488c-1.536-0.512-3.584,0-4.608,1.536
			c-1.024,1.024-1.536,3.072-1.536,4.608c0,0.512,12.288,56.32-9.728,103.936c-37.376,80.384-33.28,134.144,12.8,160.256
			l-9.216,43.52l-28.16-5.632c-2.56-0.512-5.632,1.024-6.144,4.096c-0.512,2.56,1.024,5.632,4.096,6.144l67.072,13.824
			c0.512,0,0.512,0,1.024,0c2.56,0,4.608-1.536,5.12-4.096s-1.024-5.632-4.096-6.144l-28.672-6.144l9.216-44.032
			c52.224-5.632,77.312-53.248,74.752-141.824c-1.024-52.224,32.256-98.816,32.768-98.816
			C184.464,93.184,184.464,91.648,183.952,89.6z M140.432,194.048c2.56,84.48-19.968,127.488-68.096,131.584
			c-42.496-23.04-46.08-71.168-10.24-147.968c7.168-14.848,10.752-30.72,12.8-45.568c3.072,2.048,7.168,4.096,12.288,5.12
			c11.776,2.56,18.944-1.024,25.6-4.608c6.144-3.072,10.752-5.12,19.456-3.584c8.192,1.536,11.776,6.144,16.384,10.752l0.512,0.512
			C144.016,156.672,139.92,175.104,140.432,194.048z M152.72,130.048c-4.096-4.608-9.728-8.704-18.944-10.752
			c-11.776-2.56-18.944,1.024-25.6,4.608c-6.144,3.072-10.752,5.12-19.456,3.584c-6.144-1.536-9.728-4.096-13.312-7.68
			c1.024-19.456-0.512-35.84-2.048-45.056l97.28,19.968C166.032,101.888,159.376,114.176,152.72,130.048z"/>
	</g>
</g>
<g>
	<g>
		<path d="M177.808,0c-3.072,0-5.12,2.048-5.12,5.12v30.208c0,3.072,2.048,5.12,5.12,5.12c3.072,0,5.12-2.048,5.12-5.12V5.12
			C182.928,2.048,180.88,0,177.808,0z"/>
	</g>
</g>
<g>
	<g>
		<path d="M158.864,37.888L132.752,23.04c-2.56-1.536-5.632-0.512-7.168,2.048c-1.024,2.56-0.512,5.632,2.048,7.168l26.112,14.848
			c1.024,0.512,1.536,0.512,2.56,0.512c1.536,0,3.584-1.024,4.608-2.56C162.448,42.496,161.424,39.424,158.864,37.888z"/>
	</g>
</g>
<g>
	<g>
		<path d="M373.392,328.192c-1.024-2.56-4.096-4.096-6.656-3.072l-27.648,9.728l-15.36-43.52l25.088-8.704
			c7.168-2.56,11.264-9.728,9.216-16.384L284.816,33.28c-0.512-1.536-2.048-3.072-3.584-4.096c-1.536-1.024-4.096-1.024-5.632-0.512
			l-88.576,31.232c-2.048,0.512-3.584,2.048-4.096,4.096c-1.024,1.536-1.024,3.584,0,5.12l89.6,227.84
			c2.048,5.12,6.656,7.68,12.288,7.68c1.536,0,3.584-0.512,5.12-1.024l25.088-8.704l15.36,43.52l-27.648,9.728
			c-2.56,1.024-4.096,4.096-3.072,6.656c0.512,2.048,2.56,3.584,4.608,3.584c0.512,0,1.024,0,1.536-0.512l64.512-22.528
			C372.88,333.824,374.416,331.264,373.392,328.192z M200.848,88.064l-7.68-19.456l82.944-29.184l8.704,27.136
			c-3.072,3.072-6.656,6.144-12.8,8.192c-9.728,3.584-15.872,2.048-23.04,0c-7.68-2.048-16.384-4.096-29.184,0.512
			C210.576,78.336,204.944,82.944,200.848,88.064z M285.84,294.4c-2.048,0.512-4.096,0-4.608-1.024l-76.288-194.56
			c4.608-5.632,8.192-10.752,17.92-14.336c9.728-3.584,15.872-2.048,23.04,0c7.68,2.048,16.384,4.096,29.184-0.512
			c5.632-2.048,9.728-4.608,12.8-7.168l60.416,192c0.512,1.024-0.512,3.072-2.56,3.584L285.84,294.4z"/>
	</g>
</g>
<g>
	<g>
		<path d="M272.016,143.872l-16.896-8.192c-2.048-1.024-4.608-1.024-7.168-0.512c-2.56,1.024-4.096,2.56-5.12,4.608l-8.192,16.896
			c-2.048,4.608,0,10.24,4.608,12.288l16.896,8.192c1.536,0.512,2.56,1.024,4.096,1.024c3.584,0,6.656-2.048,8.192-5.12
			l8.192-16.896C278.672,151.552,276.624,146.432,272.016,143.872z M259.728,168.448l-15.36-7.168l7.168-15.36l15.36,7.168
			L259.728,168.448z"/>
	</g>
</g>
<g>
	<g>
		<path d="M311.952,191.488l-4.608-18.432c-1.024-5.12-6.144-8.192-10.752-7.168l-18.432,3.584
			c-5.12,1.024-8.192,6.144-7.168,10.752l3.584,18.432c0.512,2.56,2.048,4.608,4.096,6.144c1.536,1.024,3.072,1.536,5.12,1.536
			c0.512,0,1.024,0,2.048,0l18.432-3.584c2.56-0.512,4.608-2.048,6.144-4.096C311.952,196.608,312.464,194.048,311.952,191.488z
			 M284.304,195.584l-3.584-16.896l16.896-3.584L301.2,192L284.304,195.584z"/>
	</g>
</g>
<g>
	<g>
		<path d="M282.256,96.768l-18.944-1.024c-5.12-0.512-9.728,3.584-9.728,8.704l-1.024,18.944c-0.512,5.12,3.584,9.728,8.704,9.728
			l18.944,1.024h0.512c5.12,0,9.216-4.096,9.216-8.704l1.024-18.944C291.472,101.376,287.376,96.768,282.256,96.768z
			 M279.696,123.904L262.8,122.88l1.024-16.896l16.896,1.024L279.696,123.904z"/>
	</g>
</g>
<g>
</g>
<g>
</g>
<g>
</g>
<g>
</g>
<g>
</g>
<g>
</g>
<g>
</g>
<g>
</g>
<g>
</g>
<g>
</g>
<g>
</g>
<g>
</g>
<g>
</g>
<g>
</g>
<g>
</g>
</svg>
